<?xml version="1.0" encoding="UTF-8"?>
<svg width="30px" height="37px" viewBox="0 0 30 37" version="1.1" xmlns="http://www.w3.org/2000/svg" xmlns:xlink="http://www.w3.org/1999/xlink">
    <title>PressoLogo Copy 2</title>
    <defs>
        <rect id="path-1" x="0" y="0" width="30" height="37"></rect>
    </defs>
    <g id="Screens(bottom-menu)" stroke="none" stroke-width="1" fill="none" fill-rule="evenodd">
        <g id="PressoLogo-Copy-2">
            <mask id="mask-2" fill="white">
                <use xlink:href="#path-1"></use>
            </mask>
            <g id="path-1"></g>
            <g id="Group" mask="url(#mask-2)" fill="#323333" fill-rule="nonzero">
                <g>
                    <path d="M9.92570179,6.86356573 L28.925593,0.0494158687 C29.33271,-0.0965931642 29.7900394,0.0919183354 29.947067,0.470468084 C30.0290973,0.668220089 30.015276,0.889278759 29.9091535,1.07685986 L10.5299428,35.3313653 C10.3267963,35.6904453 9.84905445,35.82841 9.46287663,35.6395181 C9.20321104,35.5125073 9.04062339,35.2621602 9.04062339,34.9893463 L9.04062339,8.0630594 C9.04062339,7.53155029 9.3923786,7.05483757 9.92570179,6.86356573 Z" id="Rectangle"></path>
                    <path d="M0.586002224,13.394211 L6.56788984,9.47319483 C6.92453131,9.23942297 7.41745718,9.31874142 7.66887059,9.65035757 C7.82650581,9.85827957 7.85723635,10.1272328 7.75010395,10.3613105 L1.51707252,23.980098 C1.34620635,24.35343 0.882207502,24.5272805 0.480702085,24.3684039 C0.189213678,24.2530612 0,23.9869835 0,23.6924265 L0,14.4449882 C0,14.0269753 0.218565789,13.6350588 0.586002224,13.394211 Z" id="Rectangle-Copy" transform="translate(3.906601, 16.883097) rotate(180.000000) translate(-3.906601, -16.883097) "></path>
                </g>
            </g>
        </g>
    </g>
</svg>